<svg width="720" height="820" viewBox="0 0 720 820" fill="none" xmlns="http://www.w3.org/2000/svg">
<g clip-path="url(#clip0_4_5)">
<rect width="720" height="820" fill="white"/>
<path d="M20.9302 80.1395L155.182 134.558L270.755 216.605L331.535 410H211.096H20.9302H-169.236H-334.047L-253.454 198.186L-134.372 117.5L20.9302 80.1395Z" fill="#FF1919"/>
<path d="M-22.5002 737.767L-156.14 686.698L-267.07 601.302L-326.512 410.703L-215.357 410.3L-22.5002 410.703L170.357 411.105L330.698 411.105L314.298 522.546L249.488 626L134.389 703.53L-22.5002 737.767Z" fill="white"/>
<path d="M-3.05176e-05 735.173C179.588 735.173 325.173 589.588 325.173 410C325.173 230.412 179.588 84.8265 -3.05176e-05 84.8265C-179.588 84.8265 -325.173 230.412 -325.173 410C-325.173 589.588 -179.588 735.173 -3.05176e-05 735.173Z" stroke="black" stroke-width="35" stroke-linecap="round" stroke-linejoin="round"/>
<path d="M4.02496e-05 502.303C50.9794 502.303 92.3035 460.979 92.3035 410C92.3035 359.021 50.9794 317.697 4.02496e-05 317.697C-50.9793 317.697 -92.3034 359.021 -92.3034 410C-92.3034 460.979 -50.9793 502.303 4.02496e-05 502.303Z" stroke="black" stroke-width="35" stroke-linecap="round" stroke-linejoin="round"/>
<path d="M92.3034 410H307.673" stroke="black" stroke-width="35"/>
<ellipse cx="3.05176e-05" cy="409.581" rx="79.5349" ry="78.2791" fill="white"/>
</g>
<defs>
<clipPath id="clip0_4_5">
<rect width="720" height="820" fill="white"/>
</clipPath>
</defs>
</svg>
